<?xml version="1.0" encoding="utf-8"?>
<!-- Generator: Adobe Illustrator 28.3.0, SVG Export Plug-In . SVG Version: 6.00 Build 0)  -->
<svg version="1.1" id="Layer_1" xmlns="http://www.w3.org/2000/svg" xmlns:xlink="http://www.w3.org/1999/xlink" x="0px" y="0px"
	 viewBox="0 0 1187.6 284.81" style="enable-background:new 0 0 1187.6 284.81;" xml:space="preserve">
<style type="text/css">
	.st0{display:none;fill:#FFFFFF;}
	.st1{fill:#FFFFFF;}
</style>
<path class="st0" d="M1202.31,318.03c-412,0-824,0-1236,0c0-111.67,0-223.33,0-335c412,0,824,0,1236,0
	C1202.31,94.7,1202.31,206.36,1202.31,318.03z M1108.14,273.02c0.04-0.85,0.08-1.42,0.08-1.99c0-32.75,0.06-65.5-0.03-98.24
	c-0.03-13.32-1.66-26.42-6.79-38.88c-6.24-15.14-16.86-26.13-31.45-33.44c-13.12-6.58-27.19-9.34-41.65-10.4
	c-25.65-1.87-50.54,1.76-74.43,11.34c-6.06,2.43-11.73,5.81-17.72,8.83c7.31,14.7,14.37,28.88,21.48,43.18
	c0.79-0.47,1.3-0.73,1.77-1.05c17.26-11.82,36.44-15.87,57.01-13.75c7.98,0.82,15.43,3.33,21.24,9.41
	c4.93,5.16,6.51,11.5,7.18,18.51c-2.04,0-3.78-0.02-5.52,0c-18.15,0.26-36.35-0.96-54.42,1.54c-12.45,1.72-24.57,4.61-35.19,11.82
	c-10.74,7.29-17.91,17.06-19.99,30.08c-0.73,4.58-0.88,9.25-1.32,14.07c-4.57,2.11-9.64,3.04-14.98,3.08
	c-11.68,0.1-18.48-8.63-18.57-18.36c-0.18-20.25-0.1-40.5-0.12-60.75c0-0.46,0.14-0.93,0.26-1.6c13.66,0,27.2,0,40.76,0
	c0-15.79,0-31.34,0-47.17c-13.67,0-27.22,0-41,0c0-15.74,0-31.2,0-46.79c-21.27,0-42.29,0-63.53,0c0,15.66,0,31.13,0,46.85
	c-8.76,0-17.31,0-26.25,0c0,6.15,0,12.06,0,18.63c-0.74-0.89-1-1.19-1.24-1.5c-5.72-7.56-12.83-13.46-21.18-17.92
	c-10.65-5.68-22.12-8.12-34.06-8.73c-19.6-1-37.7,3.4-53.68,15.17c-2.83,2.08-5.43,4.49-8.48,7.03c0-6.69,0-12.97,0-19.3
	c-20.19,0-40.13,0-60.43,0c0,18.88,0,37.6,0,56.32c-1.47-2.4-2.47-4.85-3.55-7.26c-5.88-13.11-14.53-24.12-26.02-32.69
	c-15.2-11.36-32.61-17.23-51.38-18.95c-17.91-1.64-35.45,0.32-52.24,7.09c-19.55,7.88-35.12,20.55-45.74,38.91
	c-2.81,4.85-5.02,10.04-7.7,15.48c0-42.07,0-83.8,0-125.44c-21.2,0-42.07,0-63.18,0c0,27.31,0,54.41,0,82.05
	c-1.23-1.14-2.07-1.92-2.9-2.7c-6.59-6.14-14.32-10.35-22.97-12.65c-19.49-5.18-38.76-4.32-57.63,2.91
	c-25.5,9.78-42.08,28.15-50.37,53.88c-7.12,22.12-6.82,44.48,0.17,66.62c5,15.86,13.77,29.49,26.71,39.96
	c22.33,18.07,48.04,23.14,75.93,18.15c10.64-1.9,20.37-6.2,28.52-13.54c1.81-1.63,3.49-3.39,5.74-5.6c0,6.4,0,12.08,0,17.68
	c20.18,0,40.05,0,60.08,0c0-19.82,0-39.44,0-59.06c0.59,0.49,0.86,1.05,1.08,1.62c3.1,8.24,7.19,15.96,12.68,22.85
	c17.48,21.95,41,32.83,68.21,36.63c12.26,1.71,24.59,1.52,36.9,0.16c19.57-2.16,37.46-8.41,52.53-21.52
	c2.42-2.1,4.66-4.41,7.03-6.67c-11.26-11.73-22.27-23.18-33.38-34.75c-1.34,1.05-2.52,1.97-3.68,2.9
	c-5.12,4.08-10.67,7.4-16.88,9.53c-9.23,3.17-18.74,3.86-28.36,2.83c-11.14-1.19-21.24-4.82-28.93-13.52
	c-3.8-4.29-6.52-9.13-7.95-14.82c42.58,0,84.87,0,127.43,0c0,24.7,0,49.25,0,73.83c21.22,0,42.17,0,63.31,0c0-1.16,0-2.15,0-3.13
	c0-26.58-0.05-53.17,0.04-79.75c0.02-5.4,0.2-10.86,0.96-16.19c1.23-8.6,4.55-16.32,11.25-22.25c6.63-5.88,14.51-8.08,23.21-8.3
	c14.74-0.37,24.53,6.47,28,20.69c1.45,5.92,2.06,12.17,2.11,18.27c0.21,29.16,0.09,58.33,0.09,87.5c0,1.05,0,2.1,0,3.21
	c21.23,0,42.12,0,63.25,0c0-0.93,0-1.74,0-2.56c0-33.25,0.04-66.5-0.04-99.75c-0.01-5.4-0.51-10.81-0.89-16.2
	c-0.19-2.6-0.64-5.18-0.97-7.76c5.05,0,9.92,0,14.9,0c0,1.09,0,2,0,2.91c0,18.67-0.19,37.34,0.09,56c0.11,7.21,0.7,14.51,2.06,21.58
	c4.31,22.41,17.61,37.27,39.3,44.29c17.15,5.55,34.7,5.81,52.36,2.8c8.27-1.41,16.12-4.04,23.46-8.46c-0.45-1.45-0.9-2.88-1.51-4.84
	c6.41,4.76,12.67,8.56,19.73,10.76c17.08,5.34,34.41,6.02,51.75,1.66c12.39-3.12,22.55-9.73,29.22-21c0.35-0.58,0.78-1.11,1.63-2.3
	c0,8.15,0,15.51,0,22.9C1069.07,273.02,1088.47,273.02,1108.14,273.02z M1114.37,92.63c0,60.22,0,120.23,0,180.33
	c21.08,0,42.02,0,63.04,0c0-60.18,0-120.21,0-180.33C1156.38,92.63,1135.49,92.63,1114.37,92.63z M151.38,128.2
	c0.01-0.38,0.02-0.76,0.03-1.14c-0.99-0.67-1.89-1.56-2.98-1.98c-8.07-3.1-16.28-5.88-24.26-9.2c-14.69-6.11-25.95-16-33.86-30.07
	c-8.68-15.45-15.09-31.67-19.47-48.77c-0.19-0.72-0.32-1.49-0.66-2.14c-0.85-1.61-2.86-1.71-3.83-0.16
	c-0.47,0.76-0.66,1.7-0.98,2.55c-3.35,8.69-6.26,17.57-10.15,26.01c-5.28,11.44-12.67,21.55-22.39,29.7
	c-15.48,12.96-33.22,21.4-52.9,25.82c-1.66,0.37-3.86,0.4-3.92,2.71c-0.06,2.31,2.16,2.45,3.78,2.93
	c11.37,3.35,22.37,7.61,32.88,13.11c13.49,7.06,23.81,16.99,29.92,31.25c5.94,13.89,10.83,28.1,14.8,42.66
	c0.39,1.43,0.69,3.09,2.68,3.09c1.97-0.01,2.2-1.66,2.72-3.07c3.66-9.81,6.87-19.83,11.17-29.36c5.42-12.03,12.8-22.88,23.88-30.54
	c9.42-6.51,19.67-11.57,30.47-15.36c6.59-2.31,13.36-4.09,20.02-6.2C149.41,129.67,150.36,128.82,151.38,128.2z M1184.47,39.12
	c-0.03-13.26-5.46-22.81-16.28-28.41c-14.56-7.54-29.67-7.82-44.24,0.1c-10.85,5.9-16.55,15.5-16.64,27.95
	c-0.09,12.47,5.76,21.85,16.29,28.22c9.09,5.5,19.14,6.32,29.45,5.06C1171.51,69.78,1184.06,56.25,1184.47,39.12z M237.17,221.24
	c-1.07-0.87-1.58-1.52-2.25-1.78c-1.94-0.75-3.93-1.37-5.92-1.98c-14.71-4.51-26.35-12.78-32.47-27.35
	c-3.31-7.88-6-16.01-9.04-24.01c-0.31-0.83-1.05-1.49-1.59-2.23c-0.56,0.7-1.34,1.31-1.65,2.11c-0.78,2.01-1.29,4.13-2.03,6.16
	c-3.57,9.81-8.52,18.8-16.16,26.07c-9.61,9.14-21.22,14.45-34,17.49c-0.94,0.22-1.74,1.03-2.6,1.56c0.84,0.66,1.58,1.54,2.53,1.93
	c6.54,2.66,13.29,4.86,19.63,7.91c7.05,3.4,13.01,8.28,16.74,15.51c4.8,9.31,7.79,19.26,10.83,29.21c0.27,0.88,1.16,1.57,1.77,2.36
	c0.59-0.8,1.41-1.53,1.74-2.43c1.44-3.9,2.59-7.91,4.12-11.77c5.56-14.02,14.29-25.15,28.82-30.73c6.13-2.35,12.4-4.32,18.59-6.5
	C235.08,222.45,235.85,221.93,237.17,221.24z M266.18,97.4c0.05-0.37,0.09-0.73,0.14-1.1c-1.57-0.56-3.11-1.19-4.7-1.67
	c-10.13-3.07-18.14-8.66-22.21-18.83c-2-5.01-3.77-10.11-5.69-15.14c-0.24-0.63-0.8-1.13-1.22-1.7c-0.42,0.54-0.98,1.02-1.24,1.63
	c-0.49,1.14-0.79,2.36-1.2,3.54c-2.48,7.19-6.02,13.71-11.96,18.67c-5.97,4.99-12.79,8.31-20.33,10.23
	c-0.96,0.25-1.85,0.81-2.77,1.22c3.86,2.07,7.54,3.33,11.12,4.82c7.84,3.27,14,8.28,16.82,16.65c1.65,4.88,3.31,9.76,5.03,14.62
	c0.22,0.63,0.77,1.14,1.17,1.7c0.42-0.55,0.98-1.04,1.23-1.66c1.44-3.63,2.61-7.38,4.24-10.92c2.87-6.24,6.8-11.76,13.18-14.81
	c4.93-2.36,10.13-4.16,15.22-6.19C264.05,98.07,265.12,97.75,266.18,97.4z"/>
<path class="st1" d="M1108.14,273.02c-19.67,0-39.07,0-58.73,0c0-7.4,0-14.76,0-22.9c-0.85,1.19-1.29,1.72-1.63,2.3
	c-6.67,11.27-16.83,17.88-29.22,21c-17.35,4.36-34.67,3.68-51.75-1.66c-7.06-2.2-13.32-6-19.73-10.76c0.61,1.96,1.06,3.38,1.51,4.84
	c-7.34,4.42-15.19,7.06-23.46,8.46c-17.66,3-35.21,2.75-52.36-2.8c-21.69-7.02-34.99-21.88-39.3-44.29
	c-1.36-7.07-1.95-14.38-2.06-21.58c-0.28-18.66-0.09-37.33-0.09-56c0-0.91,0-1.82,0-2.91c-4.98,0-9.85,0-14.9,0
	c0.33,2.58,0.78,5.16,0.97,7.76c0.39,5.4,0.88,10.8,0.89,16.2c0.08,33.25,0.04,66.5,0.04,99.75c0,0.81,0,1.63,0,2.56
	c-21.13,0-42.02,0-63.25,0c0-1.11,0-2.16,0-3.21c0-29.17,0.12-58.33-0.09-87.5c-0.04-6.11-0.66-12.36-2.11-18.27
	c-3.47-14.22-13.27-21.06-28-20.69c-8.7,0.22-16.57,2.42-23.21,8.3c-6.7,5.93-10.02,13.65-11.25,22.25
	c-0.76,5.34-0.95,10.79-0.96,16.19c-0.09,26.58-0.04,53.17-0.04,79.75c0,0.99,0,1.97,0,3.13c-21.14,0-42.09,0-63.31,0
	c0-24.58,0-49.13,0-73.83c-42.56,0-84.86,0-127.43,0c1.43,5.69,4.15,10.53,7.95,14.82c7.69,8.7,17.79,12.33,28.93,13.52
	c9.62,1.03,19.13,0.34,28.36-2.83c6.21-2.14,11.77-5.45,16.88-9.53c1.16-0.93,2.34-1.84,3.68-2.9
	c11.11,11.56,22.12,23.02,33.38,34.75c-2.37,2.26-4.62,4.56-7.03,6.67c-15.07,13.11-32.96,19.36-52.53,21.52
	c-12.31,1.36-24.64,1.56-36.9-0.16c-27.21-3.8-50.72-14.69-68.21-36.63c-5.49-6.89-9.58-14.6-12.68-22.85
	c-0.22-0.58-0.49-1.14-1.08-1.62c0,19.62,0,39.25,0,59.06c-20.03,0-39.9,0-60.08,0c0-5.6,0-11.29,0-17.68
	c-2.25,2.2-3.94,3.97-5.74,5.6c-8.16,7.34-17.88,11.64-28.52,13.54c-27.89,4.99-53.61-0.09-75.93-18.15
	c-12.94-10.47-21.71-24.1-26.71-39.96c-6.98-22.14-7.29-44.5-0.17-66.62c8.29-25.73,24.87-44.1,50.37-53.88
	c18.87-7.23,38.14-8.09,57.63-2.91c8.65,2.3,16.37,6.51,22.97,12.65c0.84,0.78,1.67,1.55,2.9,2.7c0-27.64,0-54.75,0-82.05
	c21.11,0,41.98,0,63.18,0c0,41.64,0,83.37,0,125.44c2.68-5.44,4.9-10.63,7.7-15.48c10.62-18.36,26.19-31.03,45.74-38.91
	c16.8-6.77,34.33-8.73,52.24-7.09c18.77,1.72,36.17,7.59,51.38,18.95c11.48,8.58,20.13,19.58,26.02,32.69
	c1.08,2.41,2.08,4.86,3.55,7.26c0-18.72,0-37.44,0-56.32c20.29,0,40.23,0,60.43,0c0,6.33,0,12.61,0,19.3
	c3.05-2.55,5.65-4.95,8.48-7.03C710.8,93.19,728.9,88.8,748.5,89.79c11.94,0.61,23.41,3.05,34.06,8.73
	c8.35,4.46,15.46,10.36,21.18,17.92c0.24,0.31,0.5,0.61,1.24,1.5c0-6.57,0-12.47,0-18.63c8.94,0,17.48,0,26.25,0
	c0-15.73,0-31.2,0-46.85c21.24,0,42.26,0,63.53,0c0,15.59,0,31.05,0,46.79c13.78,0,27.32,0,41,0c0,15.83,0,31.38,0,47.17
	c-13.56,0-27.1,0-40.76,0c-0.11,0.67-0.26,1.14-0.26,1.6c0.02,20.25-0.06,40.5,0.12,60.75c0.09,9.73,6.89,18.45,18.57,18.36
	c5.34-0.04,10.41-0.97,14.98-3.08c0.43-4.82,0.59-9.49,1.32-14.07c2.07-13.02,9.25-22.79,19.99-30.08
	c10.62-7.21,22.74-10.1,35.19-11.82c18.07-2.5,36.28-1.28,54.42-1.54c1.74-0.03,3.48,0,5.52,0c-0.67-7-2.25-13.35-7.18-18.51
	c-5.8-6.08-13.26-8.59-21.24-9.41c-20.57-2.12-39.75,1.93-57.01,13.75c-0.47,0.32-0.98,0.59-1.77,1.05
	c-7.11-14.3-14.17-28.49-21.48-43.18c5.99-3.02,11.66-6.4,17.72-8.83c23.89-9.58,48.78-13.21,74.43-11.34
	c14.46,1.06,28.53,3.82,41.65,10.4c14.59,7.31,25.21,18.3,31.45,33.44c5.13,12.46,6.76,25.56,6.79,38.88
	c0.08,32.75,0.03,65.5,0.03,98.24C1108.22,271.6,1108.17,272.17,1108.14,273.02z M377.39,182.88c-0.34-3.48-0.54-6.97-1.05-10.42
	c-2.75-18.66-16.26-32.26-36.27-32.51c-17.61-0.21-31.78,10.19-36.52,27.14c-2.5,8.91-2.47,17.95-0.99,26.98
	c1.34,8.15,4.76,15.41,10.66,21.31c8.41,8.42,18.75,11.26,30.39,10.21c11.68-1.05,20.55-6.71,26.85-16.46
	C375.61,201.16,377.09,192.19,377.39,182.88z M571.19,165.43c-2.6-17.22-16.41-31.32-37.66-30.87
	c-22.03,0.47-33.74,16.16-35.74,30.87C522.26,165.43,546.72,165.43,571.19,165.43z M1044.88,199.86c-11.38,0-22.44-0.27-33.49,0.14
	c-4.13,0.15-8.45,1.31-12.25,2.98c-10.2,4.49-12.39,18.95-4.4,26.7c5.01,4.85,11.19,6.26,17.85,6.4
	c10.61,0.23,20.01-2.71,26.79-11.26c2.36-2.98,4.58-6.61,5.27-10.25C1045.56,209.83,1044.88,204.79,1044.88,199.86z"/>
<path class="st1" d="M1114.37,92.63c21.12,0,42.01,0,63.04,0c0,60.12,0,120.14,0,180.33c-21.02,0-41.96,0-63.04,0
	C1114.37,212.86,1114.37,152.85,1114.37,92.63z"/>
<path class="st1" d="M183.29,136.17c-1.02,0.62-1.96,1.47-3.07,1.82c-6.66,2.11-13.44,3.89-20.02,6.2
	c-10.8,3.79-21.05,8.85-30.47,15.36c-11.08,7.66-18.46,18.51-23.88,30.54c-4.29,9.53-7.5,19.55-11.17,29.36
	c-0.53,1.41-0.75,3.06-2.72,3.07c-2,0.01-2.29-1.66-2.68-3.09c-3.96-14.56-8.85-28.77-14.8-42.66
	c-6.1-14.26-16.42-24.19-29.92-31.25c-10.51-5.5-21.51-9.76-32.88-13.11c-1.62-0.48-3.84-0.62-3.78-2.93
	c0.06-2.31,2.25-2.34,3.92-2.71c19.68-4.42,37.43-12.85,52.9-25.82c9.73-8.15,17.11-18.25,22.39-29.7
	c3.89-8.43,6.81-17.32,10.15-26.01c0.33-0.85,0.51-1.79,0.98-2.55c0.97-1.55,2.98-1.45,3.83,0.16c0.34,0.65,0.47,1.42,0.66,2.14
	c4.38,17.1,10.79,33.33,19.47,48.77c7.91,14.07,19.16,23.96,33.86,30.07c7.98,3.32,16.19,6.1,24.26,9.2
	c1.09,0.42,1.99,1.31,2.98,1.98C183.31,135.41,183.3,135.79,183.29,136.17z"/>
<path class="st1" d="M1184.47,39.12c-0.41,17.13-12.95,30.66-31.44,32.92c-10.31,1.26-20.36,0.45-29.45-5.06
	c-10.53-6.37-16.37-15.75-16.29-28.22c0.09-12.45,5.79-22.05,16.64-27.95c14.57-7.92,29.69-7.64,44.24-0.1
	C1179.01,16.31,1184.43,25.86,1184.47,39.12z"/>
<path class="st1" d="M237.17,221.24c-1.32,0.69-2.09,1.22-2.93,1.52c-6.19,2.18-12.47,4.15-18.59,6.5
	c-14.52,5.58-23.26,16.72-28.82,30.73c-1.53,3.86-2.68,7.87-4.12,11.77c-0.33,0.9-1.15,1.62-1.74,2.43c-0.6-0.78-1.5-1.47-1.77-2.36
	c-3.04-9.95-6.03-19.9-10.83-29.21c-3.73-7.23-9.69-12.11-16.74-15.51c-6.34-3.06-13.1-5.25-19.63-7.91
	c-0.95-0.39-1.69-1.27-2.53-1.93c0.86-0.54,1.67-1.34,2.6-1.56c12.78-3.04,24.39-8.35,34-17.49c7.64-7.27,12.59-16.26,16.16-26.07
	c0.74-2.03,1.24-4.15,2.03-6.16c0.31-0.8,1.08-1.41,1.65-2.11c0.54,0.74,1.28,1.4,1.59,2.23c3.03,8,5.73,16.13,9.04,24.01
	c6.12,14.58,17.76,22.84,32.47,27.35c1.99,0.61,3.98,1.24,5.92,1.98C235.58,219.71,236.09,220.36,237.17,221.24z"/>
<path class="st1" d="M266.18,97.4c-1.06,0.36-2.13,0.67-3.17,1.08c-5.09,2.03-10.28,3.84-15.22,6.19
	c-6.38,3.05-10.31,8.57-13.18,14.81c-1.63,3.54-2.8,7.29-4.24,10.92c-0.24,0.62-0.81,1.11-1.23,1.66c-0.4-0.56-0.95-1.07-1.17-1.7
	c-1.71-4.86-3.38-9.74-5.03-14.62c-2.82-8.37-8.98-13.39-16.82-16.65c-3.58-1.49-7.26-2.75-11.12-4.82c0.92-0.42,1.8-0.98,2.77-1.22
	c7.53-1.92,14.35-5.24,20.33-10.23c5.94-4.96,9.48-11.49,11.96-18.67c0.41-1.18,0.71-2.4,1.2-3.54c0.26-0.61,0.82-1.09,1.24-1.63
	c0.41,0.56,0.98,1.07,1.22,1.7c1.93,5.04,3.69,10.14,5.69,15.14c4.06,10.17,12.07,15.76,22.21,18.83c1.59,0.48,3.14,1.11,4.7,1.67
	C266.27,96.67,266.22,97.03,266.18,97.4z"/>
</svg>
